<?xml version="1.0" standalone="no"?>
<!DOCTYPE svg PUBLIC "-//W3C//DTD SVG 20010904//EN"
 "http://www.w3.org/TR/2001/REC-SVG-20010904/DTD/svg10.dtd">
<svg version="1.0" xmlns="http://www.w3.org/2000/svg"
 width="512.000000pt" height="512.000000pt" viewBox="0 0 512.000000 512.000000"
 preserveAspectRatio="xMidYMid meet">
<metadata>
Created by potrace 1.14, written by Peter Selinger 2001-2017
</metadata>
<g transform="translate(0.000000,512.000000) scale(0.100000,-0.100000)"
fill="#000000" stroke="none">
<path d="M318 5035 c-59 -15 -129 -57 -164 -97 -129 -153 -93 -387 75 -486 95
-56 216 -60 312 -12 50 26 113 92 138 146 12 24 24 44 28 44 4 0 86 -21 182
-46 97 -25 184 -48 193 -49 9 -2 43 -11 75 -20 l58 -16 29 -132 c16 -73 31
-141 33 -152 4 -16 -14 -33 -94 -84 -260 -170 -455 -455 -528 -771 -46 -201
-52 -484 -15 -700 5 -30 12 -73 15 -95 4 -22 8 -47 10 -55 2 -8 7 -31 10 -50
14 -82 79 -322 125 -461 116 -349 276 -675 440 -898 l63 -85 -1 -293 c-1 -249
1 -293 14 -294 66 -5 127 -2 132 5 3 6 5 101 5 213 0 112 3 203 7 203 4 0 13
-7 21 -16 17 -21 123 -96 179 -126 138 -75 307 -98 450 -61 80 21 206 86 286
148 l69 54 5 -212 5 -211 53 1 c28 0 61 1 72 2 20 1 20 8 20 294 l0 292 67 93
c54 77 70 93 87 89 196 -48 345 -61 494 -44 98 12 249 55 339 97 l82 38 45
-51 c24 -29 78 -92 119 -142 l74 -90 -41 -36 c-38 -34 -40 -38 -25 -55 40 -47
193 -230 388 -464 117 -140 229 -270 249 -289 94 -86 241 -111 352 -58 169 80
242 274 163 436 -14 29 -100 142 -192 251 -91 108 -233 279 -316 378 -82 99
-154 181 -158 181 -5 1 -26 -13 -48 -31 -24 -20 -43 -28 -47 -22 -16 24 -208
249 -214 252 -13 6 -9 39 6 51 26 21 116 180 150 264 36 88 59 172 76 279 13
87 6 304 -14 393 -91 412 -391 744 -782 865 -36 11 -76 22 -88 24 -11 2 -37 7
-56 11 -51 9 -74 13 -81 14 -4 1 -16 29 -29 64 -32 90 -95 211 -153 297 -71
104 -215 244 -322 314 -50 33 -94 62 -98 66 -6 5 9 91 37 205 2 6 6 31 10 57
7 42 11 47 44 56 158 41 471 122 475 122 3 0 16 -21 28 -47 94 -193 362 -235
513 -80 95 97 117 239 58 360 -37 74 -83 120 -157 153 -84 39 -197 35 -281 -9
-64 -33 -138 -127 -158 -202 -5 -16 -30 -26 -133 -53 -71 -18 -136 -35 -145
-37 -10 -2 -92 -23 -183 -46 -173 -44 -179 -47 -188 -104 -3 -16 -12 -60 -21
-96 -20 -85 -26 -115 -33 -162 -3 -21 -9 -40 -13 -42 -4 -3 -27 2 -51 11 -24
8 -89 26 -144 39 -107 27 -115 25 -115 -27 0 -35 0 -32 -10 -67 -8 -30 -8 -30
48 -41 58 -11 208 -56 228 -68 8 -5 -6 -86 -47 -267 -55 -243 -61 -288 -42
-283 4 1 23 -1 41 -5 96 -21 87 -24 101 40 7 32 21 94 31 138 10 44 21 91 24
105 2 14 10 49 16 78 15 69 18 84 19 100 1 20 19 14 81 -28 78 -53 204 -178
262 -260 52 -73 144 -258 134 -267 -7 -8 -7 -8 -99 -18 -82 -8 -209 -42 -294
-78 -608 -259 -878 -963 -597 -1562 94 -202 288 -410 474 -508 19 -11 39 -23
44 -27 11 -11 -115 -179 -198 -262 -262 -264 -510 -295 -777 -97 -389 288
-785 1168 -856 1899 -45 471 99 875 402 1126 57 48 124 94 136 94 4 0 13 -26
20 -57 7 -32 13 -62 15 -68 9 -44 56 -264 60 -280 2 -11 7 -35 10 -52 7 -37
18 -40 85 -20 24 8 49 15 54 16 15 3 10 41 -34 241 -69 307 -66 291 -50 301
24 15 130 48 203 63 37 8 69 16 71 18 3 3 -13 113 -20 134 -4 14 -100 -4 -219
-42 -43 -13 -80 -23 -82 -22 -1 2 -15 57 -29 123 -32 148 -53 237 -57 239 -2
1 -61 17 -133 35 -71 18 -212 53 -312 79 l-182 46 -21 57 c-23 64 -88 137
-148 168 -66 34 -154 44 -224 26z m154 -161 c60 -31 90 -81 90 -150 0 -123
-134 -205 -242 -149 -106 55 -127 187 -42 272 51 51 128 61 194 27z m3135 -1
c66 -30 103 -124 80 -201 -20 -63 -100 -119 -164 -115 -7 0 -21 1 -31 2 -10 0
-37 13 -59 28 -109 70 -98 229 19 287 52 26 98 26 155 -1z m-297 -1588 c335
-57 631 -305 753 -630 46 -124 57 -182 63 -327 16 -442 -262 -840 -686 -982
-241 -80 -506 -65 -736 43 -308 145 -528 439 -572 766 -8 63 -8 224 1 290 59
444 451 819 892 852 39 3 71 6 72 7 7 5 139 -7 213 -19z m691 -1922 c40 -49
76 -90 79 -93 16 -14 60 -73 60 -79 0 -4 -22 -26 -48 -49 l-49 -40 -89 105
c-49 58 -100 119 -113 135 l-24 30 44 39 c24 21 49 38 55 39 7 0 45 -39 85
-87z m486 -411 c87 -103 178 -212 203 -242 25 -30 47 -57 50 -60 24 -22 123
-148 136 -172 21 -41 20 -121 -3 -161 -30 -51 -92 -88 -149 -90 -76 -2 -111
22 -216 146 -365 436 -448 537 -448 545 0 6 4 12 9 14 5 2 31 22 58 45 90 78
194 163 198 163 2 0 75 -84 162 -188z"/>
<path d="M2939 3133 l-66 -15 18 -61 c28 -92 24 -87 61 -77 127 34 262 29 398
-17 271 -90 458 -332 477 -616 3 -50 6 -93 7 -93 0 -1 34 -4 74 -6 l74 -4 -3
86 c-7 214 -95 415 -249 571 -111 112 -239 185 -394 224 -109 28 -291 31 -397
8z"/>
<path d="M2637 2999 c-32 -22 -57 -43 -57 -46 0 -3 20 -30 45 -59 l45 -52 53
35 c28 19 54 36 55 38 7 7 -63 125 -74 125 -6 0 -36 -18 -67 -41z"/>
<path d="M1889 4350 c-5 -4 -7 -32 -5 -66 3 -32 5 -64 5 -69 1 -6 30 -11 71
-11 79 0 70 -11 74 100 l1 50 -68 1 c-37 0 -72 -2 -78 -5z"/>
<path d="M1228 3095 c-2 -2 -19 -5 -38 -8 -77 -10 -164 -68 -221 -147 -115
-157 -62 -375 126 -517 175 -132 443 -203 560 -147 106 50 115 230 23 449 -76
178 -196 307 -327 349 -45 14 -117 27 -123 21z m127 -189 c103 -61 207 -238
229 -391 4 -23 8 -51 11 -63 6 -33 -18 -51 -62 -46 -288 33 -524 234 -467 398
15 41 62 98 99 119 56 31 117 25 190 -17z"/>
<path d="M1443 1797 l-120 -122 54 -49 54 -50 119 119 119 119 -32 36 c-71 80
-59 84 -194 -53z"/>
<path d="M1887 1736 c-2 -6 -3 -141 -3 -301 l1 -290 75 0 75 0 0 293 c0 162
-2 297 -5 300 -8 12 -139 9 -143 -2z"/>
</g>
</svg>
